<svg version="1.1" xmlns="http://www.w3.org/2000/svg" xmlns:xlink="http://www.w3.org/1999/xlink" width="800" height="800"><defs/><g transform="scale(2,2)"><g id="background-2746d593"><rect fill="none" stroke="none" x="0" y="0" width="400" height="400" class="dcg-svg-background"/></g><g id="background-images-2746d593"/><g id="graphpaper-2746d593"><g id="axis-2746d593"><g id="yaxis-2746d593"><title>y</title><g><path fill="none" stroke="rgb(0,0,0)" class="dcg-svg-axis-line" paint-order="fill stroke markers" d=" M 75 3 L 75 400" stroke-opacity="0.9" stroke-miterlimit="10" stroke-width="1.5" stroke-dasharray=""/><g class="dcg-svg-axis-line"><path fill="rgb(0,0,0)" stroke="rgb(0,0,0)" class="dcg-svg-axis-line" paint-order="stroke fill markers" d=" M 75 1.5 L 78.10582854123025 13.09110991546882 L 71.89417145876975 13.09110991546882 L 75 1.5 L 78.10582854123025 13.09110991546882" stroke-opacity="0.9" stroke-linejoin="round" stroke-miterlimit="10" stroke-width="1.5" stroke-dasharray="" fill-opacity="0.9"/></g></g></g><g id="xaxis-2746d593"><title>x</title><g><path fill="none" stroke="rgb(0,0,0)" class="dcg-svg-axis-line" paint-order="fill stroke markers" d=" M 0 200 L 397 200" stroke-opacity="0.9" stroke-miterlimit="10" stroke-width="1.5" stroke-dasharray=""/><g class="dcg-svg-axis-line"><path fill="rgb(0,0,0)" stroke="rgb(0,0,0)" class="dcg-svg-axis-line" paint-order="stroke fill markers" d=" M 398.5 200 L 386.9088900845312 203.10582854123027 L 386.9088900845312 196.89417145876976 L 398.5 200 L 386.9088900845312 203.10582854123027" stroke-opacity="0.9" stroke-linejoin="round" stroke-miterlimit="10" stroke-width="1.5" stroke-dasharray="" fill-opacity="0.9"/></g></g></g><g><g><path fill="none" stroke="rgb(0,0,0)" class="dcg-svg-tickmark" paint-order="fill stroke markers" d="" stroke-opacity="0.9" stroke-miterlimit="2" stroke-width="1.5" stroke-dasharray=""/></g></g><g class="dcg-svg-axis-label"><text fill="none" stroke="none" font-family="Times" font-size="20px" font-style="italic" font-weight="normal" text-decoration="normal" x="376.123046875" y="215" text-anchor="start" stroke-miterlimit="2" stroke-width="3" stroke-dasharray="">x</text><text fill="#000000" stroke="none" font-family="Times" font-size="20px" font-style="italic" font-weight="normal" text-decoration="normal" x="376.123046875" y="215" text-anchor="start">x</text></g><g class="dcg-svg-axis-label" transform="translate(60.123046875,29)"><text fill="none" stroke="none" font-family="Times" font-size="20px" font-style="italic" font-weight="normal" text-decoration="normal" x="0" y="0" text-anchor="start" stroke-miterlimit="2" stroke-width="3" stroke-dasharray="">y</text><text fill="#000000" stroke="none" font-family="Times" font-size="20px" font-style="italic" font-weight="normal" text-decoration="normal" x="0" y="0" text-anchor="start">y</text></g></g></g><g id="expressions-2746d593"><g id="sketch-2746d593"><title>Expression 1</title></g><g id="sketch-2746d593"><title>-A</title><path fill="none" stroke="#FFA500" class="dcg-svg-point" paint-order="fill stroke markers" d=" M 74.9 319.9 L 74.9 320.1 L 75.1 320.1 L 75.1 319.9" stroke-linecap="round" stroke-linejoin="round" stroke-miterlimit="10" stroke-width="9.375" stroke-dasharray=""/></g><g id="sketch-2746d593"><title>A</title><path fill="none" stroke="#FFA500" class="dcg-svg-point" paint-order="fill stroke markers" d=" M 74.9 79.9 L 74.9 80.1 L 75.1 80.1 L 75.1 79.9" stroke-linecap="round" stroke-linejoin="round" stroke-miterlimit="10" stroke-width="9.375" stroke-dasharray=""/></g><g id="sketch-2746d593"><title>Expression 4</title></g><g id="sketch-2746d593"><title>O</title><path fill="none" stroke="#FFA500" class="dcg-svg-point" paint-order="fill stroke markers" d=" M 74.9 199.9 L 74.9 200.1 L 75.1 200.1 L 75.1 199.9" stroke-linecap="round" stroke-linejoin="round" stroke-miterlimit="10" stroke-width="7.5" stroke-dasharray=""/></g><g id="sketch-2746d593"><title>Expression 6</title><path fill="none" stroke="#FFA500" class="dcg-svg-point" paint-order="fill stroke markers" d=" M 199.9 199.9 L 199.9 200.1 L 200.1 200.1 L 200.1 199.9" stroke-linecap="round" stroke-linejoin="round" stroke-miterlimit="10" stroke-width="7.5" stroke-dasharray=""/></g><g id="sketch-2746d593"><title>Expression 7</title><path fill="#FFA500" stroke="none" paint-order="stroke fill markers" d="" fill-opacity="0.4"/><g><path fill="none" stroke="#FFA500" class="dcg-svg-curve" paint-order="fill stroke markers" d=" M 75 320 L 81.6 320 M 85.8 320 L 92.39999999999999 320 M 96.6 320 L 103.19999999999999 320 M 107.39999999999999 320 L 113.99999999999999 320 M 118.19999999999999 320 L 124.79999999999998 320 M 128.99999999999997 320 L 135.59999999999997 320 M 139.79999999999995 320 L 146.39999999999995 320 M 150.59999999999994 320 L 157.19999999999993 320 M 161.39999999999992 320 L 167.99999999999991 320 M 172.1999999999999 320 L 178.7999999999999 320 M 182.9999999999999 320 L 189.59999999999988 320 M 193.79999999999987 320 L 200.39999999999986 320 M 204.59999999999985 320 L 211.19999999999985 320 M 215.39999999999986 320 L 221.99999999999986 320 M 226.19999999999987 320 L 232.79999999999987 320 M 236.9999999999999 320 L 243.59999999999988 320 M 247.79999999999987 320 L 254.39999999999986 320 M 258.59999999999985 320 L 262.5 320" stroke-linecap="round" stroke-linejoin="round" stroke-miterlimit="10" stroke-width="1.5" stroke-dasharray=""/></g></g><g id="sketch-2746d593"><title>Expression 8</title><path fill="#FFA500" stroke="none" paint-order="stroke fill markers" d="" fill-opacity="0.4"/><g><path fill="none" stroke="#FFA500" class="dcg-svg-curve" paint-order="fill stroke markers" d=" M 75 80 L 81.6 80 M 85.8 80 L 92.39999999999999 80 M 96.6 80 L 103.19999999999999 80 M 107.39999999999999 80 L 113.99999999999999 80 M 118.19999999999999 80 L 124.79999999999998 80 M 129 80 L 135.6 80" stroke-linecap="round" stroke-linejoin="round" stroke-miterlimit="10" stroke-width="1.5" stroke-dasharray=""/></g></g><g id="sketch-2746d593"><title>λ</title><path fill="none" stroke="#FFA500" class="dcg-svg-point" paint-order="fill stroke markers" d=" M 324.9 199.9 L 324.9 200.1 L 325.1 200.1 L 325.1 199.9" stroke-linecap="round" stroke-linejoin="round" stroke-miterlimit="10" stroke-width="9.375" stroke-dasharray=""/></g><g id="sketch-2746d593"><title>Expression 11</title><path fill="#39C5BB" stroke="none" paint-order="stroke fill markers" d="" fill-opacity="0.4"/><g><path fill="none" stroke="#39C5BB" class="dcg-svg-curve" paint-order="fill stroke markers" d=" M 75 200 L 75 200 L 85.3515625 169.13141517174324 L 90.8203125 153.53433359640013 L 95.41015625 141.1086565978647 L 99.4140625 130.90301702985857 L 103.125 122.06623420037796 L 106.54296875 114.52471164223837 L 109.765625 107.99058083257262 L 112.79296875 102.40124588475128 L 115.72265625 97.5296000765433 L 118.5546875 93.3479266656719 L 121.2890625 89.82271011533554 L 123.828125 87.01471217803751 L 126.171875 84.83071554117711 L 128.41796875 83.11250843964744 L 130.56640625 81.8173914096586 L 132.6171875 80.9024558481548 L 134.5703125 80.32514519855718 L 136.42578125 80.04373106429621 L 138.28125 80.02313114215222 L 140.13671875 80.26339022138478 L 141.9921875 80.76398592010415 L 143.9453125 81.5709742051465 L 145.8984375 82.66326838648621 L 147.94921875 84.11434913393012 L 150.09765625 85.96457471625867 L 152.44140625 88.36188971828702 L 154.98046875 91.39568631603628 L 157.71484375 95.15688381217709 L 160.546875 99.57394960299087 L 163.4765625 104.67819663405423 L 166.50390625 110.49490924792342 L 169.7265625 117.25513463155195 L 173.14453125 125.01686142291364 L 176.7578125 133.82214931061964 L 180.76171875 144.21315970828707 L 185.25390625 156.53793690903788 L 190.52734375 171.70025441915928 L 197.75390625 193.2295380359795 L 210.83984375 232.2892896945352 L 216.2109375 247.54960350697584 L 220.703125 259.6595919503185 L 224.70703125 269.81749920436295 L 228.41796875 278.6035212646849 L 231.8359375 286.09312892086876 L 235.05859375 292.57413095258227 L 238.0859375 298.11017757819 L 241.015625 302.9274332000326 L 243.84765625 307.0541719662082 L 246.58203125 310.52441293968195 L 249.12109375 313.27988913344626 L 251.46484375 315.4143347776386 L 253.7109375 317.0842556046234 L 255.76171875 318.28331335431744 L 257.71484375 319.1332383180909 L 259.66796875 319.6961608759168 L 261.5234375 319.9638582435445 L 263.37890625 319.97072489804725 L 265.234375 319.7167459096419 L 267.08984375 319.20247349065 L 269.04296875 318.38116800314225 L 270.99609375 317.27467191294926 L 273.046875 315.80884067738566 L 275.29296875 313.8506516721515 L 277.63671875 311.42072965678585 L 280.17578125 308.3524631979702 L 282.91015625 304.5552948075408 L 285.7421875 300.1024079537255 L 288.671875 294.9628314368792 L 291.69921875 289.111657476612 L 294.921875 282.3172534388232 L 298.33984375 274.52234485061473 L 302.05078125 265.4389986106456 L 306.0546875 255.00304767455256 L 310.546875 242.63730815365005 L 315.91796875 227.15353230665414 L 323.4375 204.71117789108828 L 325 200.00000000000014" stroke-linecap="round" stroke-linejoin="round" stroke-miterlimit="10" stroke-width="2.5" stroke-dasharray=""/></g></g></g><path fill="none" stroke="#39C5BB" class="dcg-svg-point" paint-order="fill stroke markers" d=" M 137.4 79.9 L 137.4 80.1 L 137.6 80.1 L 137.6 79.9" stroke-linecap="round" stroke-linejoin="round" stroke-miterlimit="10" stroke-width="8" stroke-dasharray=""/><path fill="none" stroke="#39C5BB" class="dcg-svg-point" paint-order="fill stroke markers" d=" M 262.4 319.9 L 262.4 320.1 L 262.6 320.1 L 262.6 319.9" stroke-linecap="round" stroke-linejoin="round" stroke-miterlimit="10" stroke-width="8" stroke-dasharray=""/><g id="labels-2746d593"><g transform="rotate(0,0,0) translate(75,320)"><g class="dcg-svg-label"><g transform="translate(-34.1015625,-13)"><g><text fill="none" stroke="none" font-family="arial, sans-serif" font-size="23.1px" font-style="normal" font-weight="400" text-decoration="normal" x="0" y="20.7332" text-anchor="start" stroke-linecap="round" stroke-linejoin="round" stroke-miterlimit="2" stroke-width="3" stroke-dasharray="">-A</text></g></g><g transform="translate(-34.1015625,-13)"><g><text fill="#FFA500" stroke="none" font-family="arial, sans-serif" font-size="23.1px" font-style="normal" font-weight="400" text-decoration="normal" x="0" y="20.7332" text-anchor="start">-A</text></g></g></g></g><g transform="rotate(0,0,0) translate(75,80)"><g class="dcg-svg-label"><g transform="translate(-26.4140625,-13)"><g><text fill="none" stroke="none" font-family="arial, sans-serif" font-size="23.1px" font-style="normal" font-weight="400" text-decoration="normal" x="0" y="20.7332" text-anchor="start" stroke-linecap="round" stroke-linejoin="round" stroke-miterlimit="2" stroke-width="3" stroke-dasharray="">A</text></g></g><g transform="translate(-26.4140625,-13)"><g><text fill="#FFA500" stroke="none" font-family="arial, sans-serif" font-size="23.1px" font-style="normal" font-weight="400" text-decoration="normal" x="0" y="20.7332" text-anchor="start">A</text></g></g></g></g><g transform="rotate(0,0,0) translate(75,200)"><g class="dcg-svg-label"><g transform="translate(-22.96875,5.5)"><g><text fill="none" stroke="none" font-family="arial, sans-serif" font-size="23.1px" font-style="normal" font-weight="400" text-decoration="normal" x="0" y="20.7332" text-anchor="start" stroke-linecap="round" stroke-linejoin="round" stroke-miterlimit="2" stroke-width="3" stroke-dasharray="">O</text></g></g><g transform="translate(-22.96875,5.5)"><g><text fill="#FFA500" stroke="none" font-family="arial, sans-serif" font-size="23.1px" font-style="normal" font-weight="400" text-decoration="normal" x="0" y="20.7332" text-anchor="start">O</text></g></g></g></g><g transform="rotate(0,0,0) translate(325,200)"><g class="dcg-svg-label"><g transform="translate(6,6.5)"><g><text fill="none" stroke="none" font-family="arial, sans-serif" font-size="23.1px" font-style="normal" font-weight="400" text-decoration="normal" x="0" y="20.7332" text-anchor="start" stroke-linecap="round" stroke-linejoin="round" stroke-miterlimit="2" stroke-width="3" stroke-dasharray="">λ</text></g></g><g transform="translate(6,6.5)"><g><text fill="#FFA500" stroke="none" font-family="arial, sans-serif" font-size="23.1px" font-style="normal" font-weight="400" text-decoration="normal" x="0" y="20.7332" text-anchor="start">λ</text></g></g></g></g></g></g></svg>